STARTFONT 2.1
COMMENT
COMMENT Converted from OpenType font "Font 90 Icons.ttf" by "otf2bdf 3.0".
COMMENT
FONT -FreeType-Font 90 Icons-Medium-R-Normal--30-220-100-100-P-117-ISO10646-1
SIZE 22 100 100
FONTBOUNDINGBOX 33 33 0 -7
STARTPROPERTIES 19
FOUNDRY "FreeType"
FAMILY_NAME "Font 90 Icons"
WEIGHT_NAME "Medium"
SLANT "R"
SETWIDTH_NAME "Normal"
ADD_STYLE_NAME ""
PIXEL_SIZE 30
POINT_SIZE 220
RESOLUTION_X 100
RESOLUTION_Y 100
SPACING "P"
AVERAGE_WIDTH 117
CHARSET_REGISTRY "ISO10646"
CHARSET_ENCODING "1"
FONT_ASCENT 25
FONT_DESCENT 6
COPYRIGHT "Typeface © (el-harrak.blogspot.com). <darrati10@gmail.com>. All Rights Reserved"
_OTF_FONTFILE "Font 90 Icons.ttf"
_OTF_PSNAME "Font 90 Icons"
ENDPROPERTIES
CHARS 242
STARTCHAR 0000
ENCODING 0
SWIDTH 0 0
DWIDTH 0 0
BBX 0 0 0 0
BITMAP
ENDCHAR
STARTCHAR 001D
ENCODING 29
SWIDTH 0 0
DWIDTH 0 0
BBX 0 0 0 0
BITMAP
ENDCHAR
STARTCHAR 0020
ENCODING 32
SWIDTH 261 0
DWIDTH 8 0
BBX 0 0 0 0
BITMAP
ENDCHAR
STARTCHAR 0021
ENCODING 33
SWIDTH 981 0
DWIDTH 30 0
BBX 30 30 0 -5
BITMAP
000FC000
007FB800
01FFE600
03FFF180
07FFF8C0
0FFFFC60
1FFCFC20
3FF87C10
3FF87C18
7FFC7C08
7FFFFC08
7FFFF804
FFFFF804
FFFFF004
FFFFC004
FFF80004
FFE00004
FFC00004
7F800004
7F800008
7F030008
3F078008
3F078010
1F038020
1F800060
0F8000C0
07C00180
01E00300
00F01C00
001FE000
ENDCHAR
STARTCHAR 0022
ENCODING 34
SWIDTH 981 0
DWIDTH 30 0
BBX 30 24 0 -2
BITMAP
001FE000
003FF000
00301000
00301000
3FFFFFF0
7FFFFFFC
FFFFFFFC
FFFFFFFC
FFFFFFFC
FFFFFFFC
FFFFFFFC
FFFFFFFC
FFFFFFFC
FFFFFFFC
FFFFFFFC
FFFFFFFC
FFFFFFFC
FFFFFFFC
FFFFFFFC
FFFFFFFC
FFFFFFFC
FFFFFFFC
7FFFFFFC
7FFFFFF8
ENDCHAR
STARTCHAR 0023
ENCODING 35
SWIDTH 981 0
DWIDTH 30 0
BBX 28 32 1 -6
BITMAP
00300000
01FF0000
E7FFE000
FFFFFFC0
F7FFFFC0
77FFFFC0
77FFFFC0
77FFFFE0
77FFFFE0
7BFFFFE0
3BFFFFE0
3BFFFFE0
3BFFFFE0
3BFFFFF0
39FFFFF0
3DE03FF0
1D8007F0
1D0001F0
1C000000
1C000000
1E000000
0E000000
0E000000
0E000000
0E000000
0E000000
0F000000
07000000
07000000
07000000
07000000
07800000
ENDCHAR
STARTCHAR 0024
ENCODING 36
SWIDTH 981 0
DWIDTH 30 0
BBX 30 30 0 -5
BITMAP
0E000000
1F000000
3F800000
7FC00000
FFE00000
FFF00000
FFF80000
7FFE0000
3FFF0000
1FFF8000
0FFFE000
07FFC000
03FF8000
01FF0000
01FE0000
00FF0000
00798000
0030C000
00202000
00001000
00000800
00000400
00000200
00000100
00000080
00000040
00000020
00000010
00000008
00000004
ENDCHAR
STARTCHAR 0025
ENCODING 37
SWIDTH 981 0
DWIDTH 30 0
BBX 28 32 1 -6
BITMAP
00060000
000F0000
000F8000
001F8000
007FF000
01FFF800
03FFFE00
77FF7FE0
FF8F1FF0
FF060FF0
FF060FF0
7F861FE0
3FC63FE0
3FE67FE0
787FE1E0
781F81E0
781F81E0
783FC1E0
79FFFDE0
3FC63FE0
3F861FE0
FF060FF0
FF0707F0
FF8F1FF0
7FEF3FF0
07FFFE00
03FFFC00
00FFF000
003FC000
000F8000
000F0000
00070000
ENDCHAR
STARTCHAR 0026
ENCODING 38
SWIDTH 981 0
DWIDTH 30 0
BBX 30 30 0 -5
BITMAP
000FC000
007FF800
01F01E00
03800700
060FC1C0
0C3FF0C0
18FFFC60
31FFFE30
33FFFF30
63BFFF98
679FFF98
47CFEF8C
CFE7DFCC
CFF3BFCC
CFF97FCC
CFFCFFCC
CFFCFFCC
CFFFFFCC
47FFFFCC
67FFFF88
63FFFF98
33FFFF18
31FFFE30
18FFFC60
0C7FF8E0
0E0FE1C0
03800380
01E01E00
007FFC00
001FE000
ENDCHAR
STARTCHAR 0027
ENCODING 39
SWIDTH 981 0
DWIDTH 30 0
BBX 30 30 0 -5
BITMAP
007E0000
03FF8000
07FFE000
0FFFF000
1FFFF800
3F01FC00
3E187C00
7C383E00
7C383E00
F8381E00
F9FF9E00
FBFF9F00
F9FF9F00
F8381E00
78383E00
7C383E00
7E187C00
3F00FC00
3FC3FE00
1FFFFF00
0FFFFF80
03FFFFC0
01FF7FE0
00003FF0
00001FF8
00000FFC
000007FC
000003FC
000001F8
000000F8
ENDCHAR
STARTCHAR 0028
ENCODING 40
SWIDTH 981 0
DWIDTH 30 0
BBX 30 30 0 -5
BITMAP
00FF0000
03FFC000
07FFE000
0FFFF000
1FE7F800
3F00FC00
7E007C00
7C003E00
78003E00
F8001E00
F9FF9F00
FBFF9F00
F9FF9F00
F8001E00
78003E00
7C003E00
7E007E00
3F00FC00
3FC3FE00
1FFFFF00
0FFFFF80
03FFFFC0
00FF7FE0
00003FF0
00001FF8
00000FFC
000007FC
000003FC
000001FC
000000F8
ENDCHAR
STARTCHAR 0029
ENCODING 41
SWIDTH 981 0
DWIDTH 30 0
BBX 30 22 0 -1
BITMAP
7FFFFFF8
FFFFFFFC
F000003C
F800007C
DC0000EC
CE0001CC
C700038C
C380070C
C1C00E0C
C0E01C0C
C070380C
C038780C
C07CFC0C
C0CFCE0C
C187870C
C300038C
C60001CC
CC0000EC
D800007C
F000003C
E000001C
7FFFFFFC
ENDCHAR
STARTCHAR 002A
ENCODING 42
SWIDTH 981 0
DWIDTH 30 0
BBX 26 32 2 -6
BITMAP
000C0000
001E0000
001E0000
001E0000
001E0000
001E0000
001E0000
001E0000
061E1800
079EF800
07FFF800
03FFF000
01FFE000
7EFFFF80
3F7FFF00
DFBFFEC0
EFDFFDC0
F7EFFBC0
FBFFF7C0
FDFFEFC0
FEFFDFC0
FF7FBFC0
FFBF3FC0
FF5EBFC0
FEECDFC0
FDF3EFC0
FBFFF7C0
F7FFFBC0
EFFFFDC0
DFFFFEC0
BFFFFF40
7FFFFF80
ENDCHAR
STARTCHAR 002B
ENCODING 43
SWIDTH 981 0
DWIDTH 30 0
BBX 30 30 0 -5
BITMAP
FFFFFFFC
FFFFFFFC
FFFFFFFC
FFFFFFFC
F03FF01C
F07FF81C
F07FFC1C
F03FF81C
F01FF01C
F41FF0BC
FE3FF9FC
FF7FFFFC
FFFFFFFC
FFFFFFFC
FFFFFFFC
FFFFFFFC
FFFFFFFC
FFFFFFFC
FFFFFFFC
FF7FF9FC
F63FF0BC
F01FE03C
F03FF01C
F07FFC1C
F07FF81C
F03FF01C
FFFFFFFC
FFFFFFFC
FFFFFFFC
FFFFFFFC
ENDCHAR
STARTCHAR 002C
ENCODING 44
SWIDTH 981 0
DWIDTH 30 0
BBX 30 30 0 -5
BITMAP
00000080
00007FC0
0000FFE0
0001FFF0
0003FFF8
0007FE7C
000FFC3C
001FFE7C
003FFFFC
007FFFF8
00FFFFF8
01FFFFF8
03FFFFF8
07BFFFF0
0F9FFFE0
1ECFFFC0
3C67FF80
7E33FF00
FF19FE00
7F8CFC00
3FC67800
1FE37000
0FF1E000
07F9C000
03FF8000
01FF0000
00FE0000
007C0000
00380000
00100000
ENDCHAR
STARTCHAR 002D
ENCODING 45
SWIDTH 981 0
DWIDTH 30 0
BBX 30 30 0 -5
BITMAP
000FC000
007FF800
01F03E00
03800700
070001C0
0C0000E0
1A001860
39003830
30807830
60407818
6020F818
603FF80C
C07FF80C
C07FF80C
C07FF80C
C07FF80C
C07FF80C
C07FF80C
603FF80C
6001F818
6000F818
30007A38
30003A30
18001960
0C0000E0
0E0001C0
07800780
01E01E00
00FFFC00
001FE000
ENDCHAR
STARTCHAR 002E
ENCODING 46
SWIDTH 981 0
DWIDTH 30 0
BBX 26 32 2 -6
BITMAP
1FFFFF00
3FFFFF80
30000180
30000180
30000180
30000180
30000180
30000180
30000180
30000180
30000180
30000180
30000180
30000180
30000180
3FFFFF80
1FFFFF00
00000000
3FFFFF80
3FFFFF80
3FFF8380
3FFFFF80
3FFFFF80
3FFFFF80
00040000
00040000
00040000
00040000
007FC000
007FC000
FFFFFFC0
007FC000
ENDCHAR
STARTCHAR 002F
ENCODING 47
SWIDTH 981 0
DWIDTH 30 0
BBX 30 31 0 -6
BITMAP
180FC060
181FE060
0C3FF0C0
0C3FF0C0
CE3FF8CC
C63FF9CC
663FF99C
663FF998
673FF998
773FFB98
773FFB98
773FFB98
733FFB98
773FFB98
773FFB98
673FFB98
673FF998
663FF998
663FF98C
C63FF1CC
CE3FF0CC
0C1FE0C0
0C0FC060
180FC060
100FC020
000FC000
000FC000
000FC000
000FC000
0007C000
00030000
ENDCHAR
STARTCHAR 0030
ENCODING 48
SWIDTH 981 0
DWIDTH 30 0
BBX 30 30 0 -5
BITMAP
000FC000
007FF800
01FFFE00
03FFFF00
07FFFFC0
0FBFFFC0
1F3FF1E0
3E1FE0F0
3C1FE0F0
780FC078
780FC038
7007803C
F00FC03C
F01CE03C
F018601C
FFF87FFC
FFF87FFC
FFFFFFFC
7FFFFFFC
7FF83FF8
7FF03FF8
3FE01FF8
3FE01FF0
1FC00FF0
1FC00FE0
0FC00FC0
07FEFF80
01FFFF00
00FFFC00
001FF000
ENDCHAR
STARTCHAR 0031
ENCODING 49
SWIDTH 981 0
DWIDTH 30 0
BBX 29 32 1 -6
BITMAP
000F8000
001F8000
001F8000
001F8000
009F9000
039F9C00
079F9F00
0F9F9F80
1F9F9F80
3F1F8FC0
7E1F87E0
7C1F83E0
F81F81F0
F81F81F0
F01F80F0
F01F80F0
F01F80F8
F01F80F8
F00000F8
F00000F0
F00000F0
F80001F0
F80001F0
7C0003E0
7E0003E0
3F000FC0
1F801FC0
1FF0FF80
07FFFF00
03FFFC00
01FFF800
003FC000
ENDCHAR
STARTCHAR 0032
ENCODING 50
SWIDTH 981 0
DWIDTH 30 0
BBX 28 32 1 -6
BITMAP
00060000
000F0000
001F8000
001F8000
000F8000
000F0000
000F0000
700F00E0
FC0F03F0
FE0607F0
FF060FF0
7F861FE0
1FC63F80
07E67E00
007FE000
001F8000
001F8000
003FC000
01FFFC00
0FC63F80
3F861FE0
FF060FF0
FE0707F0
FC0F03F0
780F01F0
000F0000
000F0000
000F8000
000F8000
000F8000
000F0000
00070000
ENDCHAR
STARTCHAR 0033
ENCODING 51
SWIDTH 981 0
DWIDTH 30 0
BBX 30 28 0 -4
BITMAP
00010000
00030000
00030000
00078000
00078000
000FC000
000FC000
001FE000
001FE000
007FF800
BFFFFFF4
7FFFFFF8
3FFFFFF0
1FFFFFE0
0FFFFFC0
07FFFF80
03FFFF00
01FFFE00
00FFFE00
01FFFE00
01FFFE00
01FFFE00
01FFFE00
01FFFF00
01F87F00
03E01F00
03800700
02000100
ENDCHAR
STARTCHAR 0034
ENCODING 52
SWIDTH 981 0
DWIDTH 30 0
BBX 30 22 0 -1
BITMAP
3FFFFFF0
3FFFFFF8
DFFFFFE4
EFFFFFCC
F7FFFF9C
FBFFFF3C
FDFFFE7C
FEFFFCFC
FF7FF9FC
FFBFF3FC
FFDFE7FC
FFCFCFFC
FFB797FC
FF7B3BFC
FEFCFDFC
FDFFFEFC
FBFFFF7C
F7FFFFBC
EFFFFFDC
DFFFFFEC
7FFFFFF4
3FFFFFF8
ENDCHAR
STARTCHAR 0035
ENCODING 53
SWIDTH 981 0
DWIDTH 30 0
BBX 30 24 0 -3
BITMAP
00010000
00078F00
000CEF00
00333F00
00679F00
019FE700
033FF300
0CFFFCC0
19FFFE60
73FFFF98
C7FFFF8C
07FFFF80
07FFFF80
07F83F80
07F83F80
07F83F80
07F83F80
07F83F80
07F83F80
07F83F80
07F83F80
07F83F80
07F83F80
03F83F00
ENDCHAR
STARTCHAR 0036
ENCODING 54
SWIDTH 981 0
DWIDTH 30 0
BBX 30 32 0 -6
BITMAP
00000200
0F000780
0F800F80
0F800F80
0F800780
02000300
1FC01FC0
7FF03FE0
FFF03FF0
FFF87FF0
FFF86FF0
FFF86FF8
FFF8FFD8
FFF8DFD8
FFF8DFF8
FFF8FFFC
FFF9FFEC
FFF8BFF8
5FD03FF0
1DC07FF0
1DC07FF0
1DC07FF8
1DC00DC0
1DC00DC0
1DC00DC0
1DC00DC0
1DC00DC0
1DC00DC0
1DC00DC0
1DC00DC0
1DC00DC0
09800D80
ENDCHAR
STARTCHAR 0037
ENCODING 55
SWIDTH 981 0
DWIDTH 30 0
BBX 30 23 0 -2
BITMAP
00FF0000
03EFC000
0F83E000
1F81F000
3F01F800
3F01FC00
7F83FC00
7FC7FE00
60FF0E00
C0FE0600
C07E0600
C07E0600
E0FE0600
E1FF0E00
7FC7FE00
7F83FC00
3F01FC00
3F01F800
1F81F804
0F83FC3C
07FFCFF8
01FF87E0
00100000
ENDCHAR
STARTCHAR 0038
ENCODING 56
SWIDTH 981 0
DWIDTH 30 0
BBX 23 32 4 -6
BITMAP
7FFFFC
FFFFFE
FFFFFE
C0000E
C00006
C00006
C00006
C00006
C0000E
FFFFFE
FFFFFE
C3870E
C3870E
C3870E
C3870E
FFFFFE
FFFFFE
FFFFFE
C3870E
C3870E
C3870E
C3870E
FFFFFE
FFFFFE
FFFFFE
C3870E
C3870E
C3870E
C3870E
FFFFFE
FFFFFE
FFFFFC
ENDCHAR
STARTCHAR 0039
ENCODING 57
SWIDTH 981 0
DWIDTH 30 0
BBX 30 28 0 -4
BITMAP
E0000000
F0000000
38000000
18000000
1C7FFFFC
0C7FFFF8
0E7FFFF8
067FFFF0
077FFFF0
033FFFE0
033FFFE0
033FFFC0
03BFFFC0
03BFFFC0
01BFFF80
01800000
01800000
01800000
01FFFFE0
01FFFFF0
00FFFFE0
00000000
00C00080
01F003E0
03F003F0
03F007F0
03F003E0
01F003E0
ENDCHAR
STARTCHAR 003A
ENCODING 58
SWIDTH 981 0
DWIDTH 30 0
BBX 30 30 0 -5
BITMAP
00000E00
00007FC0
0000FFE0
0001FFF0
0003FC78
0007FC38
0007FC3C
0007FC3C
0007FE7C
0007FFFC
0007FFFC
0007FFFC
0017FFF8
0013FFF8
0039FFF0
007CFFE0
00FE7FC0
01FF0600
03FFC000
07FE0000
0FFE0000
1FF80000
3FF80000
7F800000
FF800000
FF800000
FF800000
7E000000
7E000000
3E000000
ENDCHAR
STARTCHAR 003B
ENCODING 59
SWIDTH 981 0
DWIDTH 30 0
BBX 30 30 0 -5
BITMAP
00030000
00030000
00030000
00030000
00030000
00030000
00030000
00030000
00030000
00030000
00030000
00030000
00030000
00030000
FFFFFFFC
FFFFFFFC
00030000
00030000
00030000
00030000
00030000
00030000
00030000
00030000
00030000
00030000
00030000
00030000
00030000
00030000
ENDCHAR
STARTCHAR 003C
ENCODING 60
SWIDTH 981 0
DWIDTH 30 0
BBX 30 24 0 -2
BITMAP
00030000
00038000
00078000
0007C000
000FC000
001EE000
001CF000
00387000
00383800
00703800
00F01C00
00E01E00
01C00E00
01C00700
03800700
07800380
07000380
0E0001C0
0E0000E0
1C0000E0
3C000070
38000070
70000038
F000001C
ENDCHAR
STARTCHAR 003D
ENCODING 61
SWIDTH 981 0
DWIDTH 30 0
BBX 30 30 0 -5
BITMAP
00078000
007FF800
01C00E00
03000300
040000C0
08000060
19FFC020
3070F030
20707810
60703818
40703808
4070380C
C070780C
C0707004
C077E004
C07F8004
C0738004
C071C00C
4071E00C
4070E008
60707008
20703818
30703C10
11FC1E20
18000060
0C0000C0
07000180
01C00600
00F87C00
001FE000
ENDCHAR
STARTCHAR 003E
ENCODING 62
SWIDTH 981 0
DWIDTH 30 0
BBX 30 30 0 -5
BITMAP
000F8000
007FF800
01C00E00
03000300
060000C0
08000060
181FFE20
30701E30
20E00E10
61C00618
41C00208
4380000C
C380000C
C3800004
C7800004
C7800004
C3800004
C380000C
4380000C
43C00008
61C00208
20E00418
30780810
103FF020
18038060
0C0000C0
07000180
01800700
00F87C00
001FE000
ENDCHAR
STARTCHAR 003F
ENCODING 63
SWIDTH 981 0
DWIDTH 30 0
BBX 30 30 0 -5
BITMAP
00078000
007FF800
01FFFE00
03FFFF00
07E00F80
0F8007C0
1E0001E0
3E0000F0
3C000070
78000078
78000038
7000003C
F000003C
F000001C
F000001C
F000001C
F000001C
F000003C
7000003C
70000038
78000078
38000078
3C0000F0
1E0001E0
1F0003E0
0FC00FC0
07F83F80
01FFFF00
00FFFC00
001FE000
ENDCHAR
STARTCHAR 0040
ENCODING 64
SWIDTH 981 0
DWIDTH 30 0
BBX 30 30 0 -5
BITMAP
00010000
00030000
00030000
00078000
00078000
000FC000
000FC000
001FE000
001FE000
003FF000
003FF000
007FF800
007FF800
00FFFC00
00FFFC00
01FFFE00
01FFFE00
03FFFF00
03FFFF00
07FFFF80
07FFFF80
0FFFFFC0
0FFFFFC0
1FFFFFE0
1FFFFFE0
3FFFFFF0
3FFFFFF0
7FFFFFF8
7FFFFFF8
FFFFFFFC
ENDCHAR
STARTCHAR 0041
ENCODING 65
SWIDTH 981 0
DWIDTH 30 0
BBX 30 28 0 -4
BITMAP
80100000
E0180000
F01E0000
F81F0000
FE1F8000
FF1FE000
FF9FF000
FFEFF800
FFF7FE00
FFF9FF00
FFFEFF80
FFFF7FC0
FFFF9FF0
FFFFCFF8
FFFFEFFC
FFFF9FF0
FFFF3FE0
FFFEFF80
FFF9FF00
FFF3FE00
FFEFF800
FF9FF000
FF1FE000
FE1FC000
FC1F0000
F01E0000
E01C0000
C0100000
ENDCHAR
STARTCHAR 0042
ENCODING 66
SWIDTH 981 0
DWIDTH 30 0
BBX 26 32 2 -6
BITMAP
80001FC0
C0001FC0
F0001FC0
F8001FC0
FE001FC0
FF801FC0
FFC01FC0
FFF01FC0
FFFC1FC0
FFFE1FC0
FFFF9FC0
FFFFFFC0
FFFFFFC0
FFFFFFC0
FFFFFFC0
FFFFFFC0
FFFFFFC0
FFFFFFC0
FFFFFFC0
FFFFFFC0
FFFFFFC0
FFFF9FC0
FFFF1FC0
FFFC1FC0
FFF01FC0
FFE01FC0
FF801FC0
FF001FC0
FC001FC0
F0001FC0
E0001FC0
80001FC0
ENDCHAR
STARTCHAR 0043
ENCODING 67
SWIDTH 981 0
DWIDTH 30 0
BBX 22 32 4 -6
BITMAP
FF87FC
FF87FC
FF87FC
FF87FC
FF87FC
FF87FC
FF87FC
FF87FC
FF87FC
FF87FC
FF87FC
FF87FC
FF87FC
FF87FC
FF87FC
FF87FC
FF87FC
FF87FC
FF87FC
FF87FC
FF87FC
FF87FC
FF87FC
FF87FC
FF87FC
FF87FC
FF87FC
FF87FC
FF87FC
FF87FC
FF87FC
FF87FC
ENDCHAR
STARTCHAR 0044
ENCODING 68
SWIDTH 981 0
DWIDTH 30 0
BBX 26 32 2 -6
BITMAP
80000000
C0000000
F0000000
F8000000
FE000000
FF800000
FFC00000
FFF00000
FFFC0000
FFFE0000
FFFF8000
FFFFC000
FFFFF000
FFFFFC00
FFFFFE00
FFFFFF80
FFFFFFC0
FFFFFF00
FFFFFC00
FFFFF800
FFFFE000
FFFF8000
FFFF0000
FFFC0000
FFF80000
FFE00000
FF800000
FF000000
FC000000
F0000000
E0000000
80000000
ENDCHAR
STARTCHAR 0045
ENCODING 69
SWIDTH 981 0
DWIDTH 30 0
BBX 30 30 0 -5
BITMAP
0007C000
007FF800
01FFFE00
03FFFF00
07FFFF80
0FFFFFC0
1FFFFFE0
3FFFFFF0
3FFFFFF0
7FF03FF8
7FE00FF8
7FC007FC
7F8007FC
FF8007FC
FF8003FC
FF8003FC
FF8003FC
FF8007FC
7F8007FC
7FC00FF8
7FE01FF8
3FF87FF8
3FFFFFF0
1FFFFFE0
0FFFFFE0
0FFFFFC0
03FFFF80
01FFFE00
007FFC00
001FE000
ENDCHAR
STARTCHAR 0046
ENCODING 70
SWIDTH 981 0
DWIDTH 30 0
BBX 30 29 0 -5
BITMAP
FFFFFFFC
FFFFFFFC
FFFFFFFC
FFFFFFFC
FFFFFFFC
FFFFFFFC
FFFFFFFC
FFFFFFFC
FFFFFFFC
FFFFFFFC
FFFFFFFC
FFFFFFFC
FFFFFFFC
FFFFFFFC
FFFFFFFC
FFFFFFFC
FFFFFFFC
FFFFFFFC
FFFFFFFC
FFFFFFFC
FFFFFFFC
FFFFFFFC
FFFFFFFC
FFFFFFFC
FFFFFFFC
FFFFFFFC
FFFFFFFC
FFFFFFFC
FFFFFFFC
ENDCHAR
STARTCHAR 0047
ENCODING 71
SWIDTH 981 0
DWIDTH 30 0
BBX 26 32 2 -6
BITMAP
FE000040
FE0000C0
FE0001C0
FE0007C0
FE001FC0
FE003FC0
FE00FFC0
FE03FFC0
FE07FFC0
FE1FFFC0
FE7FFFC0
FEFFFFC0
FFFFFFC0
FFFFFFC0
FFFFFFC0
FFFFFFC0
FFFFFFC0
FFFFFFC0
FFFFFFC0
FFFFFFC0
FFFFFFC0
FE7FFFC0
FE3FFFC0
FE0FFFC0
FE03FFC0
FE01FFC0
FE007FC0
FE001FC0
FE000FC0
FE0003C0
FE0000C0
FE000040
ENDCHAR
STARTCHAR 0048
ENCODING 72
SWIDTH 981 0
DWIDTH 30 0
BBX 30 28 0 -4
BITMAP
00002004
0000600C
0000E03C
0003E07C
0007E0FC
000FE3FC
003FE7FC
007FCFFC
00FFBFFC
03FF7FFC
07FCFFFC
0FFBFFFC
3FF7FFFC
7FCFFFFC
FFDFFFFC
3FE7FFFC
1FFBFFFC
07FDFFFC
03FE7FFC
01FFBFFC
007FDFFC
003FE7FC
001FE3FC
0007E1FC
0003E07C
0001E03C
0000601C
00002004
ENDCHAR
STARTCHAR 0049
ENCODING 73
SWIDTH 981 0
DWIDTH 30 0
BBX 30 30 0 -5
BITMAP
E4000000
E3000000
E3800000
E3C00000
E3C80000
E3CC0000
E3CF0000
E3CF8000
E3CFE000
E3CFF800
E3CFFC00
E3CFFF00
E3CFFFC0
E3CFFFE0
E3CFFFF8
E3CFFFFC
E3CFFFF0
E3CFFFC0
E3CFFF80
E3CFFE00
E3CFF800
E3CFF000
E3CFC000
E3CF0000
E3CE0000
E3C80000
E3C00000
E3C00000
E3000000
E2000000
ENDCHAR
STARTCHAR 004A
ENCODING 74
SWIDTH 981 0
DWIDTH 30 0
BBX 30 29 0 -5
BITMAP
00030000
00038000
00078000
000FC000
001FE000
001FF000
003FF000
007FF800
00FFFC00
00FFFE00
01FFFE00
03FFFF00
07FFFF80
07FFFFC0
0FFFFFC0
1FFFFFE0
3FFFFFF0
3FFFFFF8
7FFFFFFC
80000000
00000000
FFFFFFFC
FFFFFFFC
FFFFFFFC
FFFFFFFC
FFFFFFFC
FFFFFFFC
FFFFFFFC
FFFFFFFC
ENDCHAR
STARTCHAR 004B
ENCODING 75
SWIDTH 981 0
DWIDTH 30 0
BBX 30 30 0 -5
BITMAP
000000E0
000001E0
000001E0
000003C0
000007C0
00000780
00000F80
00000F00
00001F00
3FFFFE00
3FFFFE00
7FFFFE00
FFFFFE00
1FFFFF00
00FFFF00
0003FF80
0003FF80
0003FFC0
0007DFC0
00078FE0
000F07F0
000F03F0
001E01F8
01FC00F8
03FC00FC
05FE0078
001E0038
000E0010
00060000
00040000
ENDCHAR
STARTCHAR 004C
ENCODING 76
SWIDTH 981 0
DWIDTH 30 0
BBX 26 32 2 -6
BITMAP
00000800
00000800
00000C00
00001C00
01FFFC00
07FFFE00
0FFFFE00
1FFFFF00
3C03FF00
6000FF00
8001FF80
0003FF80
0003FFC0
0007F800
000C0000
00000000
00000000
00000000
00FC0000
FFF80000
7FF00000
7FF00040
3FE00080
3FF00300
3FFE3F00
1FFFFE00
1FFFFC00
0FFFF000
0E1F8000
06000000
04000000
04000000
ENDCHAR
STARTCHAR 004D
ENCODING 77
SWIDTH 981 0
DWIDTH 30 0
BBX 30 26 0 -3
BITMAP
000C0000
00FFC000
03FFF000
07FFF800
0FE1FC00
1F007E00
3E001F00
3C000F00
78000780
78000780
F0004784
F0003FF8
F0001FF0
F0001FF0
F0000FE0
F00007C0
78000380
78000100
7C000000
3E000000
1F002000
1FC0E000
0FFFE000
03FFF000
01FFE000
003E0000
ENDCHAR
STARTCHAR 004E
ENCODING 78
SWIDTH 981 0
DWIDTH 30 0
BBX 30 22 0 -1
BITMAP
00000020
000000F0
000001F8
000003FC
000007FC
00000FF8
00001FF0
3C003FE0
7E007FC0
FF00FF80
FF81FF00
7FC3FE00
3FE7FC00
1FFFF800
0FFFF000
07FFE000
03FFC000
01FF8000
00FF0000
007E0000
003C0000
00180000
ENDCHAR
STARTCHAR 004F
ENCODING 79
SWIDTH 981 0
DWIDTH 30 0
BBX 30 30 0 -5
BITMAP
3C000000
7FE00000
FFFC0000
FFFF0000
7FFF8000
3FFFE000
00FFF000
001FF800
0007FC00
7E01FE00
7FC0FF00
FFF07F80
FFFC1FC0
7FFE1FC0
3FFF0FE0
00FF87E0
003FC3F0
001FC3F0
000FE1F8
0007F1F8
1E03F1F8
3F83F0F8
7FC1F8FC
FFC1F8FC
FFC1F8FC
FFC0F8FC
FFC0F8FC
7FC0F8FC
3F80F87C
1E007038
ENDCHAR
STARTCHAR 0050
ENCODING 80
SWIDTH 981 0
DWIDTH 30 0
BBX 28 32 1 -6
BITMAP
000F0000
007FE000
01FFF800
03FFFC00
07FFFE00
07F07F00
0FC03F00
1F801F80
1F000F80
1F000780
1E0007C0
1E0007C0
1E0007C0
1E0007C0
1E0007C0
FFFFFFF0
FFFFFFF0
FFFFFFF0
FFFFFFF0
FFF0FFF0
FFF0FFF0
FFF0FFF0
FFF9FFF0
FFF9FFF0
FFF9FFF0
FFF9FFF0
FFF8FFF0
FFF8FFF0
FFFFFFF0
FFFFFFF0
FFFFFFF0
FFFFFFF0
ENDCHAR
STARTCHAR 0051
ENCODING 81
SWIDTH 981 0
DWIDTH 30 0
BBX 30 30 0 -5
BITMAP
03FFFF00
03FFFF00
03FFFF00
03FFFF00
03FFFF00
03FFFF00
03FFFF00
03FFFF00
03FFFF00
03FFFF00
03FFFF00
00010000
00010000
00010000
00010000
00010000
03FFFF80
02000180
02000180
02000180
FFF87FFC
FFF87FFC
FFF87FFC
FFF87FFC
FFF87FFC
FFF87FFC
FFF87FFC
FFF87FFC
FFF87FFC
FFF87FFC
ENDCHAR
STARTCHAR 0052
ENCODING 82
SWIDTH 981 0
DWIDTH 30 0
BBX 30 18 0 1
BITMAP
00180000
000C0000
000E0000
01FF8E00
0FFFCFE0
1FFFEFF0
3FFFCFF8
7C0F00F8
780E003C
F01C003C
F000003C
F000003C
F800003C
78000078
7FFFFFF8
3FFFFFF0
1FFFFFE0
07FFFF80
ENDCHAR
STARTCHAR 0053
ENCODING 83
SWIDTH 981 0
DWIDTH 30 0
BBX 30 25 0 -3
BITMAP
00001C00
00003E00
00007F00
0000FF80
7FF9FFC0
FFFBFFE0
FFF7FFF0
FFEFFFF8
FFFFFFFC
FC1F3E7C
F9E9FEC8
F7FFFEFC
F7FFFEFC
F7FFFEF8
E7FFFEF8
EFFFFEF8
EFFFFEF8
EFFFFEF0
DFFFFEF0
DFFFDDF0
DFFFFFF0
9FFFFFE0
7FFFFFE0
3FFFFFE0
1FFFFF80
ENDCHAR
STARTCHAR 0054
ENCODING 84
SWIDTH 981 0
DWIDTH 30 0
BBX 30 30 0 -5
BITMAP
000FC000
007FF800
01FFFE00
03FFFF00
07FFFF80
0FE01FC0
1F8007E0
3FC003F0
3FE001F0
7DF000F8
7CF800F8
787C0078
F83E007C
F81F007C
F80F807C
F807C07C
F803E07C
F801F07C
7800F87C
7C007C78
7C003EF8
3E001FF8
3F000FF0
1F8007E0
0FC00FE0
0FFCFFC0
07FFFF80
01FFFE00
007FFC00
001FE000
ENDCHAR
STARTCHAR 0055
ENCODING 85
SWIDTH 981 0
DWIDTH 30 0
BBX 30 26 0 -3
BITMAP
00010000
00030000
00070000
000F0000
001F0000
003F0000
007F0000
00FF0000
FFFF0000
FFFF0000
FFFF0000
FFFF1FFC
FFFF1FFC
FFFF1FFC
FFFF1FFC
FFFF0000
FFFF0000
FFFF0000
00FF0000
007F0000
003F0000
001F0000
000F0000
00070000
00030000
00030000
ENDCHAR
STARTCHAR 0056
ENCODING 86
SWIDTH 981 0
DWIDTH 30 0
BBX 30 28 0 -4
BITMAP
00010000
00018000
00038000
00078000
000F8000
001F8000
003F8000
007F8000
00FF8000
FFFF81C0
FFFF81C0
FFFF81C0
FFFF9FFC
FFFF9FFC
FFFF9FFC
FFFF9FFC
FFFF81C0
FFFF81C0
FFFF81C0
7FFF81C0
007F8000
003F8000
001F8000
000F8000
00078000
00038000
00018000
00008000
ENDCHAR
STARTCHAR 0057
ENCODING 87
SWIDTH 981 0
DWIDTH 30 0
BBX 30 29 0 -5
BITMAP
0FE00FE0
1FF03FF0
3FF87FF8
7FFCFFF8
FFFDFFFC
FFFFFFFC
FFFFFFFC
FFFFFFFC
7FFFFFFC
7FFFFFFC
3FFFFFF8
3FFFFFF0
1FFFFFF0
0FFFFFE0
07FFFFC0
03FFFF80
01FFFF00
00FFFE00
007FFC00
003FF800
001FF000
000FE000
0007C000
0007C000
00038000
00030000
00010000
00010000
00010000
ENDCHAR
STARTCHAR 0058
ENCODING 88
SWIDTH 981 0
DWIDTH 30 0
BBX 25 32 3 -6
BITMAP
03000000
07000000
07000000
07000000
07000000
07000000
07000000
07000000
07000000
07180000
071C0000
071CE000
071CE700
471CE780
E7BCE780
E7FFFF80
E7FFFF80
E7FFFF80
E7FFFF80
E7FFFF80
F7FFFF80
FFFFFF80
FFFFFF80
FFFFFF80
7FFFFF80
3FFFFF80
3FFFFF80
1FFFFF80
1FFFFF80
0FFFFF00
07FFFF00
03FFFE00
ENDCHAR
STARTCHAR 0059
ENCODING 89
SWIDTH 981 0
DWIDTH 30 0
BBX 22 32 4 -6
BITMAP
003000
003800
003800
063980
073B80
073B80
073B80
073B9C
073B9C
073B9C
073B9C
073B9C
073B9C
073B9C
073B9C
E73B9C
E7FFFC
E7FFFC
E7FFFC
E7FFFC
E7FFFC
EFFFFC
FFFFFC
FFFFFC
FFFFFC
7FFFFC
3FFFFC
3FFFFC
1FFFFC
0FFFFC
0FFFFC
07FFF8
ENDCHAR
STARTCHAR 005A
ENCODING 90
SWIDTH 981 0
DWIDTH 30 0
BBX 30 30 0 -5
BITMAP
000000C0
0000C0E0
0001C060
0001C070
0003C070
0007C630
000FC638
001FC738
003FC738
007FC71C
FFFFC31C
FFFFC39C
FFFFC39C
FFFFC39C
FFFFC39C
FFFFC39C
FFFFC39C
FFFFC39C
FFFFC39C
FFFFC31C
FFFFC71C
7FFFC738
007FC738
003FC638
001FC630
000FC470
0007C070
0003C060
0001C0E0
0000C0C0
ENDCHAR
STARTCHAR 005B
ENCODING 91
SWIDTH 981 0
DWIDTH 30 0
BBX 29 29 1 -5
BITMAP
C0000000
F0000000
FC000000
FF000000
FFC00000
FFF00000
FFFC0000
FFFF0000
FFFFC000
FFFFF000
FFFFFC00
FFFFFF00
FFFFFFC0
FFFFFFF0
FFFFFFF8
FFFFFFC0
FFFFFF00
FFFFFC00
FFFFF000
FFFFC000
FFFF0000
FFFC0000
FFF00000
FFC00000
FF000000
FC000000
F0000000
C0000000
80000000
ENDCHAR
STARTCHAR 005C
ENCODING 92
SWIDTH 981 0
DWIDTH 30 0
BBX 30 30 0 -5
BITMAP
FFFFFFFC
7FFFFFF8
7FFFFFF8
3FFFFFF0
3FFFFFF0
1FFFFFE0
1FFFFFE0
0FFFFFC0
0FFFFFC0
07FFFF80
07FFFF80
03FFFF00
03FFFF00
01FFFE00
01FFFE00
00FFFC00
00FFFC00
007FF800
007FF800
003FF000
003FF000
001FE000
001FE000
000FC000
000FC000
00078000
00078000
00030000
00030000
00010000
ENDCHAR
STARTCHAR 005D
ENCODING 93
SWIDTH 981 0
DWIDTH 30 0
BBX 30 30 0 -5
BITMAP
00000004
0000000C
0000003C
000000FC
000003FC
00000FFC
00003FFC
0000FFFC
0003FFFC
000FFFFC
003FFFFC
00FFFFFC
03FFFFFC
0FFFFFFC
3FFFFFFC
FFFFFFFC
1FFFFFFC
07FFFFFC
01FFFFFC
007FFFFC
001FFFFC
0007FFFC
0001FFFC
00007FFC
00001FFC
000007FC
000001FC
0000007C
0000001C
00000004
ENDCHAR
STARTCHAR 005E
ENCODING 94
SWIDTH 981 0
DWIDTH 30 0
BBX 30 10 0 5
BITMAP
04000040
08000040
18000020
30000030
7FFFFFF8
FFFFFFFC
3FFFFFF8
18000030
08000060
0C000040
ENDCHAR
STARTCHAR 005F
ENCODING 95
SWIDTH 981 0
DWIDTH 30 0
BBX 12 32 9 -6
BITMAP
0200
0600
0F00
1F80
3FC0
C730
0700
0700
0700
0700
0700
0700
0700
0700
0700
0700
0700
0700
0700
0700
0700
0700
0700
0700
0700
0700
8710
77E0
1FC0
0F80
0700
0200
ENDCHAR
STARTCHAR 0060
ENCODING 96
SWIDTH 981 0
DWIDTH 30 0
BBX 11 32 10 -6
BITMAP
0E00
0E00
0E00
0E00
0E00
0E00
0E00
0E00
0E00
0E00
0E00
0E00
0E00
0E00
0E00
0E00
0E00
0E00
0E00
0E00
0E00
0E00
0E00
0E00
0E00
0E00
8E20
6FC0
3F80
1F00
0E00
0400
ENDCHAR
STARTCHAR 0061
ENCODING 97
SWIDTH 981 0
DWIDTH 30 0
BBX 30 17 0 1
BITMAP
00000040
00000040
007F80C0
01FFE0C0
03FFF9E0
07FFFFE0
0FFFFFE0
1FFFFFE0
1F8FFFF0
3C01FFF0
30007FF0
40007FF8
8000FFF8
0001FFF8
0001FFF8
0003FFFC
000FFFFC
ENDCHAR
STARTCHAR 0062
ENCODING 98
SWIDTH 981 0
DWIDTH 30 0
BBX 30 17 0 1
BITMAP
08000000
04000000
0C03F000
0E1FFC00
0E7FFF00
0FFFFF80
1FFFFFC0
1FFFFFE0
1FFFE7E0
3FFE00F0
3FFC0030
3FF80008
3FFC0004
7FFE0004
7FFF0000
7FFF8000
FFFFC000
ENDCHAR
STARTCHAR 0063
ENCODING 99
SWIDTH 981 0
DWIDTH 30 0
BBX 30 32 0 -7
BITMAP
000FC000
000FE000
000FE000
000FE000
000FE000
000FE000
000FE000
000FE000
000FE000
000FE000
000FE000
000FE000
000FE000
000FE000
700FE038
7C0FE0FC
FF0FE3FC
FFCFEFFC
7FFFFFF8
3FFFFFF0
1FFFFFE0
0FFFFFC0
07FFFF80
03FFFF00
01FFFE00
00FFFC00
007FF800
003FF000
001FE000
000FC000
00078000
00010000
ENDCHAR
STARTCHAR 0064
ENCODING 100
SWIDTH 981 0
DWIDTH 30 0
BBX 30 30 0 -5
BITMAP
00000080
000001E0
000003F0
080007F8
3C000FFC
7C001FFC
FE003FFC
FE007FF8
FF00FFF0
FF01FFE0
FF03FFC0
FF87FF80
FF8FFF00
FF9FFE00
FFFFFC00
FFFFF800
FFFFF000
FFFFE000
FFFFC000
FFFF8000
FFFF0000
FFFFC000
FFFFF800
FFFFFF00
FFFFFFC0
FFFFFFE0
FFFFFFE0
7FFFFFE0
7FFFFFC0
3FFFFF80
ENDCHAR
STARTCHAR 0065
ENCODING 101
SWIDTH 981 0
DWIDTH 30 0
BBX 30 30 0 -5
BITMAP
04000000
1F000000
3F800000
7FC00020
7FE00078
FFF000F8
7FF801FC
3FFC01FC
1FFE01FC
0FFF03FC
07FF83FC
03FFC3FC
01FFE7FC
00FFF7FC
007FFFFC
003FFFFC
001FFFFC
000FFFFC
0007FFFC
0003FFFC
0001FFFC
000FFFFC
007FFFFC
03FFFFFC
0FFFFFFC
1FFFFFFC
1FFFFFFC
1FFFFFFC
0FFFFFF8
07FFFFF0
ENDCHAR
STARTCHAR 0066
ENCODING 102
SWIDTH 981 0
DWIDTH 30 0
BBX 30 28 0 -4
BITMAP
00060000
000F0000
001F8000
003F0000
007F0000
00FE0000
01FE0000
03FC0000
07FC0000
0FFC0000
1FF80000
3FFFFFF8
7FFFFFFC
FFFFFFFC
FFFFFFFC
FFFFFFFC
7FFFFFFC
3FFFFFF8
1FF80000
0FFC0000
07FC0000
03FE0000
01FE0000
00FF0000
007F0000
003F0000
001F0000
000F0000
ENDCHAR
STARTCHAR 0067
ENCODING 103
SWIDTH 981 0
DWIDTH 30 0
BBX 30 28 0 -4
BITMAP
00018000
0003E000
0003F000
0003F800
0003FC00
0001FE00
0001FF00
0000FF80
0000FFC0
00007FE0
00007FF0
7FFFFFF8
FFFFFFFC
FFFFFFFC
FFFFFFFC
FFFFFFFC
FFFFFFF8
7FFFFFF0
00007FE0
0000FFC0
0000FF80
0001FF00
0001FE00
0003FC00
0003F800
0003F000
0003E000
0003C000
ENDCHAR
STARTCHAR 0068
ENCODING 104
SWIDTH 981 0
DWIDTH 30 0
BBX 30 32 0 -6
BITMAP
00030000
0007C000
000FE000
001FF000
003FF800
007FFC00
00FFFE00
01FFFF00
03FFFF80
07FFFFC0
0FFFFFE0
1FFFFFF0
3FFFFFF8
7FFFFFFC
FFCFEFFC
FF0FE3FC
7C0FE0FC
300FE018
000FE000
000FE000
000FE000
000FE000
000FE000
000FE000
000FE000
000FE000
000FE000
000FE000
000FE000
000FE000
000FE000
000FC000
ENDCHAR
STARTCHAR 0069
ENCODING 105
SWIDTH 981 0
DWIDTH 30 0
BBX 30 30 0 -5
BITMAP
3FFFFFC0
7FFFFFE0
FFFFFFE0
FFFFFFE0
FFFFFFE0
FFFFFFC0
FFFFFF00
FFFFFC00
FFFFE000
FFFF0000
FFFF0000
FFFF8000
FFFFC000
FFFFE000
FFFFF000
FFFFF800
FFBFFC00
FF9FFE00
FF8FFF00
FF07FF80
FF03FFC0
FF01FFE0
FE00FFF0
FE007FF8
FE003FFC
7C001FFC
38000FFC
000007F8
000003F0
000001E0
ENDCHAR
STARTCHAR 006A
ENCODING 106
SWIDTH 981 0
DWIDTH 30 0
BBX 30 30 0 -5
BITMAP
07FFFFF0
0FFFFFF8
1FFFFFFC
1FFFFFFC
1FFFFFFC
0FFFFFFC
03FFFFFC
007FFFFC
000FFFFC
0003FFFC
0003FFFC
0007FFFC
000FFFFC
001FFFFC
003FFFFC
007FFFFC
00FFF7FC
01FFE7FC
03FFC3FC
07FF83FC
0FFF03FC
1FFE01FC
3FFC01FC
7FF801FC
FFF000FC
FFE000F8
7FC00070
3F800000
1F000000
0E000000
ENDCHAR
STARTCHAR 006B
ENCODING 107
SWIDTH 981 0
DWIDTH 30 0
BBX 30 26 0 -3
BITMAP
00008000
00004000
00006000
00007000
00007800
00007C00
00007E00
00FFFF00
03FFFF80
07FFFFC0
0FFFFFE0
1FFFFFF0
3FFFFFF8
3FFFFFFC
7FE1FFF0
7F01FFE0
7C01FF80
F801FE00
F001F800
F003F000
E003C000
C0030000
C0020000
80000000
80000000
80000000
ENDCHAR
STARTCHAR 006C
ENCODING 108
SWIDTH 1080 0
DWIDTH 33 0
BBX 33 29 0 -5
BITMAP
0002000000
0006000000
000E000000
001E000000
003E000000
007E000000
00FE000000
01FFFE0000
03FFFFC000
07FFFFE000
0FFFFFF800
1FFFFFFC00
3FFFFFFC00
7FFFFFFE00
FFFFFFFF00
3FFFFFFF00
0FFF80FF00
07FF803F80
01FF801F80
007F800F80
001F800780
000FC00380
0003C00380
0000C00180
0000400180
0000000080
0000000080
0000000080
0000000080
ENDCHAR
STARTCHAR 006D
ENCODING 109
SWIDTH 981 0
DWIDTH 30 0
BBX 26 32 2 -6
BITMAP
00FFC000
00FFC000
00FFC000
00FFC000
00FFC000
00FFC000
00FFC000
00FFC000
00FFC000
00FFC000
00FFC000
00FFC000
00FFC000
00FFC000
00FFC000
00FFC000
00FFC000
00FFC000
FFFFFFC0
7FFFFF80
3FFFFF00
1FFFFE00
0FFFFC00
07FFF800
03FFF000
01FFE000
00FFC000
007F8000
003F0000
001F0000
000E0000
00040000
ENDCHAR
STARTCHAR 006E
ENCODING 110
SWIDTH 981 0
DWIDTH 30 0
BBX 30 24 0 -2
BITMAP
00040000
000C0000
001C0000
003C0000
00FC0000
01FC0000
03FC0000
07FFFFFC
0FFFFFFC
1FFFFFFC
3FFFFFFC
7FFFFFFC
FFFFFFFC
3FFFFFFC
1FFFFFFC
0FFFFFFC
07FFFFFC
03FC0000
01FC0000
00FC0000
007C0000
003C0000
001C0000
00040000
ENDCHAR
STARTCHAR 006F
ENCODING 111
SWIDTH 981 0
DWIDTH 30 0
BBX 30 24 0 -2
BITMAP
00004000
00006000
00007000
00007800
00007C00
00007E00
00007F00
FFFFFF80
FFFFFFC0
FFFFFFE0
FFFFFFF0
FFFFFFF8
FFFFFFFC
FFFFFFF0
FFFFFFE0
FFFFFFC0
FFFFFF80
00007F00
00007E00
00007C00
00007800
00007000
00006000
00004000
ENDCHAR
STARTCHAR 0070
ENCODING 112
SWIDTH 981 0
DWIDTH 30 0
BBX 26 32 2 -6
BITMAP
00040000
000C0000
001E0000
003F0000
007F8000
00FFC000
01FFE000
01FFF000
03FFF800
07FFFC00
0FFFFE00
1FFFFF00
3FFFFF00
7FFFFF80
FFFFFFC0
00FFC000
00FFC000
00FFC000
00FFC000
00FFC000
00FFC000
00FFC000
00FFC000
00FFC000
00FFC000
00FFC000
00FFC000
00FFC000
00FFC000
00FFC000
00FFC000
00FFC000
ENDCHAR
STARTCHAR 0071
ENCODING 113
SWIDTH 981 0
DWIDTH 30 0
BBX 27 32 2 -6
BITMAP
00002000
00002000
00006000
0000F000
0000F800
0001F800
0001FC00
0003FC00
0007FE00
F807FF00
F80FFF00
F80FFF80
F81FFF80
F81FFFC0
F83FFFE0
F800F800
F800F800
F800F800
F800F800
F800F800
F800F800
F800F800
F801F800
F801F000
FC01F000
FC03F000
7F0FE000
7FFFE000
3FFFC000
1FFF8000
07FF0000
01F80000
ENDCHAR
STARTCHAR 0072
ENCODING 114
SWIDTH 981 0
DWIDTH 30 0
BBX 30 26 0 -3
BITMAP
00020000
000C0000
003C0000
007C0000
01FC0000
07FC0000
0FFFFE00
3FFFFF80
FFFFFFE0
3FFFFFF0
0FFFFFF0
07FC01F8
01FC00F8
007C007C
001C007C
000C007C
0000007C
0000007C
0000007C
000000F8
000001F8
00FFFFF0
00FFFFF0
00FFFFE0
00FFFF80
00FFFE00
ENDCHAR
STARTCHAR 0073
ENCODING 115
SWIDTH 981 0
DWIDTH 30 0
BBX 30 23 0 -2
BITMAP
007FF800
03FFFF00
07FFFFC0
1FFFFFE0
3FFFFFF0
7FFFFFF8
7FFFFFF8
7FFFFFFC
FFFFFFFC
FFFFFFFC
FFFFFFFC
FFFFFFFC
7FFFFFF8
7FFFFFF8
3FFFFFF0
1FFFFFE0
0FFFFFC0
03FFFF00
00FFF800
001F0000
001C0000
00380000
00C00000
ENDCHAR
STARTCHAR 0074
ENCODING 116
SWIDTH 981 0
DWIDTH 30 0
BBX 30 25 0 -3
BITMAP
7FFFFFFC
FFFFFFFC
FFFFFFFC
FFFFFFFC
FFFFFFFC
FFFFFFFC
FFFFFFFC
FFFFFFFC
FFFFFFFC
FFFFFFFC
FFFFFFFC
FFFFFFFC
FFFFFFFC
FFFFFFFC
FFFFFFFC
FFFFFFFC
FFFFFFFC
FFFFFFFC
7FFFFFF8
00070000
000E0000
000C0000
00180000
00100000
00200000
ENDCHAR
STARTCHAR 0075
ENCODING 117
SWIDTH 981 0
DWIDTH 30 0
BBX 30 24 0 -2
BITMAP
00010000
00FFFC00
03FFFF00
0FFFFFC0
1FFFFFE0
3FFFFFF0
7FFFFFF8
7FFFFFF8
FFFFFFFC
FFFFFFFC
FFFFFFFC
FFFFFFFC
FFFFFFFC
7FFFFFF8
7FFFFFF8
3FFFFFF0
1FFFFFE0
07FFFFC0
03FFFF00
007FFC00
0001E000
0000F000
00007000
00000C00
ENDCHAR
STARTCHAR 0076
ENCODING 118
SWIDTH 981 0
DWIDTH 30 0
BBX 30 25 0 -3
BITMAP
7FFFFFFC
FFFFFFFC
FFFFFFFC
FFFFFFFC
FFFFFFFC
FFFFFFFC
FFFFFFFC
FFFFFFFC
FFFFFFFC
FFFFFFFC
FFFFFFFC
FFFFFFFC
FFFFFFFC
FFFFFFFC
FFFFFFFC
FFFFFFFC
FFFFFFFC
FFFFFFFC
7FFFFFF8
0003C000
0001C000
0000E000
00006000
00002000
00001000
ENDCHAR
STARTCHAR 0077
ENCODING 119
SWIDTH 981 0
DWIDTH 30 0
BBX 30 30 0 -5
BITMAP
00030000
00078000
000FC000
000FC000
070FC380
0FFFF7C0
0FFFFFE0
0FFFFFC0
0FFFFFC0
07FFFF80
07FEFF00
0FF03F80
3FE01FF0
7FE00FF8
FFC00FFC
FFC00FFC
7FE00FFC
7FE01FF8
07F01F00
07F87F00
03FFFF80
07FFFFC0
0FFFFFC0
0FFFFFE0
0FDFCFC0
0F8FC7C0
020FC100
000FC000
0007C000
00078000
ENDCHAR
STARTCHAR 0078
ENCODING 120
SWIDTH 981 0
DWIDTH 30 0
BBX 30 25 0 -2
BITMAP
1B800000
3F800000
1FF00000
7FF00000
F8E04000
70E0F180
30F0F3C0
7DF0FFC0
7FCDFFC0
0FDFFF80
0CDFFFD8
081FE7FC
000F81FC
000F81FC
000F81F0
003F81E0
003F81E0
003FE7F8
001FFFF8
0003FFF8
0003FF30
0003FF00
0003CF00
00018F00
00000200
ENDCHAR
STARTCHAR 0079
ENCODING 121
SWIDTH 981 0
DWIDTH 30 0
BBX 30 26 0 -3
BITMAP
007E0000
00FF87E0
03FFE7F8
07F00F80
07F00F84
0FF00FF8
0FF81FF8
7EFC1FF0
FC3E3FC0
7C1F7F80
3C0FFFC0
1807F800
0003F000
0007F000
000FF800
003FFC00
007F3E00
00FE1F00
01FC0F80
07F80FE0
0FF007F0
1FE003F8
3FC001FC
3F8000F8
3E000070
0C000020
ENDCHAR
STARTCHAR 007A
ENCODING 122
SWIDTH 981 0
DWIDTH 30 0
BBX 30 30 0 -5
BITMAP
00002000
00004000
0000C000
0001C000
0003C000
00038000
00038000
00078000
00078000
00078000
00070000
00070004
000F0038
0F0F03F0
3FCE7FE0
7FEFFFC0
71FFFF00
F0FFF000
F3FE0000
FFDE0000
7FBF0000
3F7F8000
007F8000
00F38000
00E38000
00E38000
00F70000
00FF0000
007E0000
003C0000
ENDCHAR
STARTCHAR 007B
ENCODING 123
SWIDTH 981 0
DWIDTH 30 0
BBX 30 28 0 -4
BITMAP
00000F80
00000F00
00000780
000007C0
000004E0
00000070
00000070
00000038
00000038
0000001C
0000001C
0000001C
0000001C
E000001C
E000001C
E000001C
6000001C
70000018
70000038
38000038
38000070
1C0000F0
1E0001E0
0F0003C0
07C00F80
03FFFF00
00FFFC00
001FF000
ENDCHAR
STARTCHAR 007C
ENCODING 124
SWIDTH 981 0
DWIDTH 30 0
BBX 30 28 0 -4
BITMAP
07C00000
03C00000
07C00000
0F800000
1E800000
3C000000
38000000
70000000
70000000
60000000
E0000000
E0000000
E0000000
E000001C
E000001C
E000001C
6000001C
70000018
70000038
30000038
38000070
1C0000F0
1E0001E0
0F0003C0
07C00F80
03FCFF00
00FFFC00
003FF000
ENDCHAR
STARTCHAR 007D
ENCODING 125
SWIDTH 490 0
DWIDTH 15 0
BBX 0 0 0 0
BITMAP
ENDCHAR
STARTCHAR 007E
ENCODING 126
SWIDTH 490 0
DWIDTH 15 0
BBX 0 0 0 0
BITMAP
ENDCHAR
STARTCHAR 00A0
ENCODING 160
SWIDTH 261 0
DWIDTH 8 0
BBX 0 0 0 0
BITMAP
ENDCHAR
STARTCHAR 00A1
ENCODING 161
SWIDTH 327 0
DWIDTH 10 0
BBX 0 0 0 0
BITMAP
ENDCHAR
STARTCHAR 00A2
ENCODING 162
SWIDTH 556 0
DWIDTH 17 0
BBX 0 0 0 0
BITMAP
ENDCHAR
STARTCHAR 00A3
ENCODING 163
SWIDTH 490 0
DWIDTH 15 0
BBX 0 0 0 0
BITMAP
ENDCHAR
STARTCHAR 00A4
ENCODING 164
SWIDTH 490 0
DWIDTH 15 0
BBX 0 0 0 0
BITMAP
ENDCHAR
STARTCHAR 00A5
ENCODING 165
SWIDTH 621 0
DWIDTH 19 0
BBX 0 0 0 0
BITMAP
ENDCHAR
STARTCHAR 00A6
ENCODING 166
SWIDTH 490 0
DWIDTH 15 0
BBX 0 0 0 0
BITMAP
ENDCHAR
STARTCHAR 00A7
ENCODING 167
SWIDTH 490 0
DWIDTH 15 0
BBX 0 0 0 0
BITMAP
ENDCHAR
STARTCHAR 00A8
ENCODING 168
SWIDTH 523 0
DWIDTH 16 0
BBX 0 0 0 0
BITMAP
ENDCHAR
STARTCHAR 00A9
ENCODING 169
SWIDTH 818 0
DWIDTH 25 0
BBX 0 0 0 0
BITMAP
ENDCHAR
STARTCHAR 00AA
ENCODING 170
SWIDTH 327 0
DWIDTH 10 0
BBX 0 0 0 0
BITMAP
ENDCHAR
STARTCHAR 00AB
ENCODING 171
SWIDTH 458 0
DWIDTH 14 0
BBX 0 0 0 0
BITMAP
ENDCHAR
STARTCHAR 00AC
ENCODING 172
SWIDTH 490 0
DWIDTH 15 0
BBX 0 0 0 0
BITMAP
ENDCHAR
STARTCHAR 00AD
ENCODING 173
SWIDTH 981 0
DWIDTH 30 0
BBX 30 30 0 -5
BITMAP
000FC000
007FF800
01F03E00
03800700
070001C0
0C0000E0
1A001860
39003830
30807830
60407818
6020F818
603FF80C
C07FF80C
C07FF80C
C07FF80C
C07FF80C
C07FF80C
C07FF80C
603FF80C
6001F818
6000F818
30007A38
30003A30
18001960
0C0000E0
0E0001C0
07800780
01E01E00
00FFFC00
001FE000
ENDCHAR
STARTCHAR 00AE
ENCODING 174
SWIDTH 818 0
DWIDTH 25 0
BBX 0 0 0 0
BITMAP
ENDCHAR
STARTCHAR 00AF
ENCODING 175
SWIDTH 327 0
DWIDTH 10 0
BBX 0 0 0 0
BITMAP
ENDCHAR
STARTCHAR 00B0
ENCODING 176
SWIDTH 327 0
DWIDTH 10 0
BBX 0 0 0 0
BITMAP
ENDCHAR
STARTCHAR 00B1
ENCODING 177
SWIDTH 490 0
DWIDTH 15 0
BBX 0 0 0 0
BITMAP
ENDCHAR
STARTCHAR 00B2
ENCODING 178
SWIDTH 490 0
DWIDTH 15 0
BBX 0 0 0 0
BITMAP
ENDCHAR
STARTCHAR 00B3
ENCODING 179
SWIDTH 490 0
DWIDTH 15 0
BBX 0 0 0 0
BITMAP
ENDCHAR
STARTCHAR 00B4
ENCODING 180
SWIDTH 523 0
DWIDTH 16 0
BBX 0 0 0 0
BITMAP
ENDCHAR
STARTCHAR 00B5
ENCODING 181
SWIDTH 589 0
DWIDTH 18 0
BBX 0 0 0 0
BITMAP
ENDCHAR
STARTCHAR 00B6
ENCODING 182
SWIDTH 523 0
DWIDTH 16 0
BBX 0 0 0 0
BITMAP
ENDCHAR
STARTCHAR 00B7
ENCODING 183
SWIDTH 261 0
DWIDTH 8 0
BBX 0 0 0 0
BITMAP
ENDCHAR
STARTCHAR 00B8
ENCODING 184
SWIDTH 523 0
DWIDTH 16 0
BBX 0 0 0 0
BITMAP
ENDCHAR
STARTCHAR 00B9
ENCODING 185
SWIDTH 490 0
DWIDTH 15 0
BBX 0 0 0 0
BITMAP
ENDCHAR
STARTCHAR 00BA
ENCODING 186
SWIDTH 360 0
DWIDTH 11 0
BBX 0 0 0 0
BITMAP
ENDCHAR
STARTCHAR 00BB
ENCODING 187
SWIDTH 458 0
DWIDTH 14 0
BBX 0 0 0 0
BITMAP
ENDCHAR
STARTCHAR 00BC
ENCODING 188
SWIDTH 850 0
DWIDTH 26 0
BBX 0 0 0 0
BITMAP
ENDCHAR
STARTCHAR 00BD
ENCODING 189
SWIDTH 981 0
DWIDTH 30 0
BBX 0 0 0 0
BITMAP
ENDCHAR
STARTCHAR 00BE
ENCODING 190
SWIDTH 850 0
DWIDTH 26 0
BBX 0 0 0 0
BITMAP
ENDCHAR
STARTCHAR 00BF
ENCODING 191
SWIDTH 360 0
DWIDTH 11 0
BBX 0 0 0 0
BITMAP
ENDCHAR
STARTCHAR 00C0
ENCODING 192
SWIDTH 752 0
DWIDTH 23 0
BBX 0 0 0 0
BITMAP
ENDCHAR
STARTCHAR 00C1
ENCODING 193
SWIDTH 752 0
DWIDTH 23 0
BBX 0 0 0 0
BITMAP
ENDCHAR
STARTCHAR 00C2
ENCODING 194
SWIDTH 752 0
DWIDTH 23 0
BBX 0 0 0 0
BITMAP
ENDCHAR
STARTCHAR 00C3
ENCODING 195
SWIDTH 752 0
DWIDTH 23 0
BBX 0 0 0 0
BITMAP
ENDCHAR
STARTCHAR 00C4
ENCODING 196
SWIDTH 752 0
DWIDTH 23 0
BBX 0 0 0 0
BITMAP
ENDCHAR
STARTCHAR 00C5
ENCODING 197
SWIDTH 752 0
DWIDTH 23 0
BBX 0 0 0 0
BITMAP
ENDCHAR
STARTCHAR 00C6
ENCODING 198
SWIDTH 1047 0
DWIDTH 32 0
BBX 0 0 0 0
BITMAP
ENDCHAR
STARTCHAR 00C7
ENCODING 199
SWIDTH 687 0
DWIDTH 21 0
BBX 0 0 0 0
BITMAP
ENDCHAR
STARTCHAR 00C8
ENCODING 200
SWIDTH 556 0
DWIDTH 17 0
BBX 0 0 0 0
BITMAP
ENDCHAR
STARTCHAR 00C9
ENCODING 201
SWIDTH 556 0
DWIDTH 17 0
BBX 0 0 0 0
BITMAP
ENDCHAR
STARTCHAR 00CA
ENCODING 202
SWIDTH 556 0
DWIDTH 17 0
BBX 0 0 0 0
BITMAP
ENDCHAR
STARTCHAR 00CB
ENCODING 203
SWIDTH 556 0
DWIDTH 17 0
BBX 0 0 0 0
BITMAP
ENDCHAR
STARTCHAR 00CC
ENCODING 204
SWIDTH 327 0
DWIDTH 10 0
BBX 0 0 0 0
BITMAP
ENDCHAR
STARTCHAR 00CD
ENCODING 205
SWIDTH 327 0
DWIDTH 10 0
BBX 0 0 0 0
BITMAP
ENDCHAR
STARTCHAR 00CE
ENCODING 206
SWIDTH 327 0
DWIDTH 10 0
BBX 0 0 0 0
BITMAP
ENDCHAR
STARTCHAR 00CF
ENCODING 207
SWIDTH 327 0
DWIDTH 10 0
BBX 0 0 0 0
BITMAP
ENDCHAR
STARTCHAR 00D0
ENCODING 208
SWIDTH 752 0
DWIDTH 23 0
BBX 0 0 0 0
BITMAP
ENDCHAR
STARTCHAR 00D1
ENCODING 209
SWIDTH 785 0
DWIDTH 24 0
BBX 0 0 0 0
BITMAP
ENDCHAR
STARTCHAR 00D2
ENCODING 210
SWIDTH 785 0
DWIDTH 24 0
BBX 0 0 0 0
BITMAP
ENDCHAR
STARTCHAR 00D3
ENCODING 211
SWIDTH 785 0
DWIDTH 24 0
BBX 0 0 0 0
BITMAP
ENDCHAR
STARTCHAR 00D4
ENCODING 212
SWIDTH 785 0
DWIDTH 24 0
BBX 0 0 0 0
BITMAP
ENDCHAR
STARTCHAR 00D5
ENCODING 213
SWIDTH 785 0
DWIDTH 24 0
BBX 0 0 0 0
BITMAP
ENDCHAR
STARTCHAR 00D6
ENCODING 214
SWIDTH 785 0
DWIDTH 24 0
BBX 0 0 0 0
BITMAP
ENDCHAR
STARTCHAR 00D7
ENCODING 215
SWIDTH 490 0
DWIDTH 15 0
BBX 0 0 0 0
BITMAP
ENDCHAR
STARTCHAR 00D8
ENCODING 216
SWIDTH 785 0
DWIDTH 24 0
BBX 0 0 0 0
BITMAP
ENDCHAR
STARTCHAR 00D9
ENCODING 217
SWIDTH 752 0
DWIDTH 23 0
BBX 0 0 0 0
BITMAP
ENDCHAR
STARTCHAR 00DA
ENCODING 218
SWIDTH 752 0
DWIDTH 23 0
BBX 0 0 0 0
BITMAP
ENDCHAR
STARTCHAR 00DB
ENCODING 219
SWIDTH 752 0
DWIDTH 23 0
BBX 0 0 0 0
BITMAP
ENDCHAR
STARTCHAR 00DC
ENCODING 220
SWIDTH 752 0
DWIDTH 23 0
BBX 0 0 0 0
BITMAP
ENDCHAR
STARTCHAR 00DD
ENCODING 221
SWIDTH 621 0
DWIDTH 19 0
BBX 0 0 0 0
BITMAP
ENDCHAR
STARTCHAR 00DE
ENCODING 222
SWIDTH 556 0
DWIDTH 17 0
BBX 0 0 0 0
BITMAP
ENDCHAR
STARTCHAR 00DF
ENCODING 223
SWIDTH 621 0
DWIDTH 19 0
BBX 0 0 0 0
BITMAP
ENDCHAR
STARTCHAR 00E0
ENCODING 224
SWIDTH 458 0
DWIDTH 14 0
BBX 0 0 0 0
BITMAP
ENDCHAR
STARTCHAR 00E1
ENCODING 225
SWIDTH 458 0
DWIDTH 14 0
BBX 0 0 0 0
BITMAP
ENDCHAR
STARTCHAR 00E2
ENCODING 226
SWIDTH 458 0
DWIDTH 14 0
BBX 0 0 0 0
BITMAP
ENDCHAR
STARTCHAR 00E3
ENCODING 227
SWIDTH 458 0
DWIDTH 14 0
BBX 0 0 0 0
BITMAP
ENDCHAR
STARTCHAR 00E4
ENCODING 228
SWIDTH 458 0
DWIDTH 14 0
BBX 0 0 0 0
BITMAP
ENDCHAR
STARTCHAR 00E5
ENCODING 229
SWIDTH 458 0
DWIDTH 14 0
BBX 0 0 0 0
BITMAP
ENDCHAR
STARTCHAR 00E6
ENCODING 230
SWIDTH 720 0
DWIDTH 22 0
BBX 0 0 0 0
BITMAP
ENDCHAR
STARTCHAR 00E7
ENCODING 231
SWIDTH 458 0
DWIDTH 14 0
BBX 0 0 0 0
BITMAP
ENDCHAR
STARTCHAR 00E8
ENCODING 232
SWIDTH 458 0
DWIDTH 14 0
BBX 0 0 0 0
BITMAP
ENDCHAR
STARTCHAR 00E9
ENCODING 233
SWIDTH 458 0
DWIDTH 14 0
BBX 0 0 0 0
BITMAP
ENDCHAR
STARTCHAR 00EA
ENCODING 234
SWIDTH 458 0
DWIDTH 14 0
BBX 0 0 0 0
BITMAP
ENDCHAR
STARTCHAR 00EB
ENCODING 235
SWIDTH 458 0
DWIDTH 14 0
BBX 0 0 0 0
BITMAP
ENDCHAR
STARTCHAR 00EC
ENCODING 236
SWIDTH 261 0
DWIDTH 8 0
BBX 0 0 0 0
BITMAP
ENDCHAR
STARTCHAR 00ED
ENCODING 237
SWIDTH 261 0
DWIDTH 8 0
BBX 0 0 0 0
BITMAP
ENDCHAR
STARTCHAR 00EE
ENCODING 238
SWIDTH 261 0
DWIDTH 8 0
BBX 0 0 0 0
BITMAP
ENDCHAR
STARTCHAR 00EF
ENCODING 239
SWIDTH 261 0
DWIDTH 8 0
BBX 0 0 0 0
BITMAP
ENDCHAR
STARTCHAR 00F0
ENCODING 240
SWIDTH 556 0
DWIDTH 17 0
BBX 0 0 0 0
BITMAP
ENDCHAR
STARTCHAR 00F1
ENCODING 241
SWIDTH 556 0
DWIDTH 17 0
BBX 0 0 0 0
BITMAP
ENDCHAR
STARTCHAR 00F2
ENCODING 242
SWIDTH 490 0
DWIDTH 15 0
BBX 0 0 0 0
BITMAP
ENDCHAR
STARTCHAR 00F3
ENCODING 243
SWIDTH 490 0
DWIDTH 15 0
BBX 0 0 0 0
BITMAP
ENDCHAR
STARTCHAR 00F4
ENCODING 244
SWIDTH 490 0
DWIDTH 15 0
BBX 0 0 0 0
BITMAP
ENDCHAR
STARTCHAR 00F5
ENCODING 245
SWIDTH 490 0
DWIDTH 15 0
BBX 0 0 0 0
BITMAP
ENDCHAR
STARTCHAR 00F6
ENCODING 246
SWIDTH 490 0
DWIDTH 15 0
BBX 0 0 0 0
BITMAP
ENDCHAR
STARTCHAR 00F7
ENCODING 247
SWIDTH 490 0
DWIDTH 15 0
BBX 0 0 0 0
BITMAP
ENDCHAR
STARTCHAR 00F8
ENCODING 248
SWIDTH 490 0
DWIDTH 15 0
BBX 0 0 0 0
BITMAP
ENDCHAR
STARTCHAR 00F9
ENCODING 249
SWIDTH 523 0
DWIDTH 16 0
BBX 0 0 0 0
BITMAP
ENDCHAR
STARTCHAR 00FA
ENCODING 250
SWIDTH 523 0
DWIDTH 16 0
BBX 0 0 0 0
BITMAP
ENDCHAR
STARTCHAR 00FB
ENCODING 251
SWIDTH 523 0
DWIDTH 16 0
BBX 0 0 0 0
BITMAP
ENDCHAR
STARTCHAR 00FC
ENCODING 252
SWIDTH 523 0
DWIDTH 16 0
BBX 0 0 0 0
BITMAP
ENDCHAR
STARTCHAR 00FD
ENCODING 253
SWIDTH 425 0
DWIDTH 13 0
BBX 0 0 0 0
BITMAP
ENDCHAR
STARTCHAR 00FE
ENCODING 254
SWIDTH 490 0
DWIDTH 15 0
BBX 0 0 0 0
BITMAP
ENDCHAR
STARTCHAR 00FF
ENCODING 255
SWIDTH 425 0
DWIDTH 13 0
BBX 0 0 0 0
BITMAP
ENDCHAR
STARTCHAR 0131
ENCODING 305
SWIDTH 261 0
DWIDTH 8 0
BBX 0 0 0 0
BITMAP
ENDCHAR
STARTCHAR 02C6
ENCODING 710
SWIDTH 523 0
DWIDTH 16 0
BBX 0 0 0 0
BITMAP
ENDCHAR
STARTCHAR 02C7
ENCODING 711
SWIDTH 523 0
DWIDTH 16 0
BBX 0 0 0 0
BITMAP
ENDCHAR
STARTCHAR 02C9
ENCODING 713
SWIDTH 523 0
DWIDTH 16 0
BBX 0 0 0 0
BITMAP
ENDCHAR
STARTCHAR 02D8
ENCODING 728
SWIDTH 523 0
DWIDTH 16 0
BBX 0 0 0 0
BITMAP
ENDCHAR
STARTCHAR 02D9
ENCODING 729
SWIDTH 523 0
DWIDTH 16 0
BBX 0 0 0 0
BITMAP
ENDCHAR
STARTCHAR 02DA
ENCODING 730
SWIDTH 523 0
DWIDTH 16 0
BBX 0 0 0 0
BITMAP
ENDCHAR
STARTCHAR 02DB
ENCODING 731
SWIDTH 523 0
DWIDTH 16 0
BBX 0 0 0 0
BITMAP
ENDCHAR
STARTCHAR 02DC
ENCODING 732
SWIDTH 523 0
DWIDTH 16 0
BBX 0 0 0 0
BITMAP
ENDCHAR
STARTCHAR 02DD
ENCODING 733
SWIDTH 523 0
DWIDTH 16 0
BBX 0 0 0 0
BITMAP
ENDCHAR
STARTCHAR 037E
ENCODING 894
SWIDTH 981 0
DWIDTH 30 0
BBX 30 30 0 -5
BITMAP
00030000
00030000
00030000
00030000
00030000
00030000
00030000
00030000
00030000
00030000
00030000
00030000
00030000
00030000
FFFFFFFC
FFFFFFFC
00030000
00030000
00030000
00030000
00030000
00030000
00030000
00030000
00030000
00030000
00030000
00030000
00030000
00030000
ENDCHAR
STARTCHAR 2013
ENCODING 8211
SWIDTH 556 0
DWIDTH 17 0
BBX 0 0 0 0
BITMAP
ENDCHAR
STARTCHAR 2014
ENCODING 8212
SWIDTH 1014 0
DWIDTH 31 0
BBX 0 0 0 0
BITMAP
ENDCHAR
STARTCHAR 2018
ENCODING 8216
SWIDTH 261 0
DWIDTH 8 0
BBX 0 0 0 0
BITMAP
ENDCHAR
STARTCHAR 2019
ENCODING 8217
SWIDTH 261 0
DWIDTH 8 0
BBX 0 0 0 0
BITMAP
ENDCHAR
STARTCHAR 201A
ENCODING 8218
SWIDTH 261 0
DWIDTH 8 0
BBX 0 0 0 0
BITMAP
ENDCHAR
STARTCHAR 201C
ENCODING 8220
SWIDTH 458 0
DWIDTH 14 0
BBX 0 0 0 0
BITMAP
ENDCHAR
STARTCHAR 201D
ENCODING 8221
SWIDTH 458 0
DWIDTH 14 0
BBX 0 0 0 0
BITMAP
ENDCHAR
STARTCHAR 201E
ENCODING 8222
SWIDTH 458 0
DWIDTH 14 0
BBX 0 0 0 0
BITMAP
ENDCHAR
STARTCHAR 2020
ENCODING 8224
SWIDTH 490 0
DWIDTH 15 0
BBX 0 0 0 0
BITMAP
ENDCHAR
STARTCHAR 2021
ENCODING 8225
SWIDTH 490 0
DWIDTH 15 0
BBX 0 0 0 0
BITMAP
ENDCHAR
STARTCHAR 2022
ENCODING 8226
SWIDTH 523 0
DWIDTH 16 0
BBX 0 0 0 0
BITMAP
ENDCHAR
STARTCHAR 2026
ENCODING 8230
SWIDTH 1014 0
DWIDTH 31 0
BBX 0 0 0 0
BITMAP
ENDCHAR
STARTCHAR 2039
ENCODING 8249
SWIDTH 327 0
DWIDTH 10 0
BBX 0 0 0 0
BITMAP
ENDCHAR
STARTCHAR 203A
ENCODING 8250
SWIDTH 327 0
DWIDTH 10 0
BBX 0 0 0 0
BITMAP
ENDCHAR
STARTCHAR 2044
ENCODING 8260
SWIDTH 163 0
DWIDTH 5 0
BBX 0 0 0 0
BITMAP
ENDCHAR
STARTCHAR 20A3
ENCODING 8355
SWIDTH 490 0
DWIDTH 15 0
BBX 0 0 0 0
BITMAP
ENDCHAR
STARTCHAR 20A4
ENCODING 8356
SWIDTH 490 0
DWIDTH 15 0
BBX 0 0 0 0
BITMAP
ENDCHAR
STARTCHAR 20A7
ENCODING 8359
SWIDTH 1014 0
DWIDTH 31 0
BBX 0 0 0 0
BITMAP
ENDCHAR
STARTCHAR 20AC
ENCODING 8364
SWIDTH 490 0
DWIDTH 15 0
BBX 0 0 0 0
BITMAP
ENDCHAR
STARTCHAR 2116
ENCODING 8470
SWIDTH 1112 0
DWIDTH 34 0
BBX 0 0 0 0
BITMAP
ENDCHAR
STARTCHAR 2122
ENCODING 8482
SWIDTH 752 0
DWIDTH 23 0
BBX 0 0 0 0
BITMAP
ENDCHAR
STARTCHAR 2202
ENCODING 8706
SWIDTH 490 0
DWIDTH 15 0
BBX 0 0 0 0
BITMAP
ENDCHAR
STARTCHAR 2206
ENCODING 8710
SWIDTH 523 0
DWIDTH 16 0
BBX 0 0 0 0
BITMAP
ENDCHAR
STARTCHAR 220F
ENCODING 8719
SWIDTH 752 0
DWIDTH 23 0
BBX 0 0 0 0
BITMAP
ENDCHAR
STARTCHAR 2211
ENCODING 8721
SWIDTH 589 0
DWIDTH 18 0
BBX 0 0 0 0
BITMAP
ENDCHAR
STARTCHAR 2212
ENCODING 8722
SWIDTH 490 0
DWIDTH 15 0
BBX 0 0 0 0
BITMAP
ENDCHAR
STARTCHAR 2215
ENCODING 8725
SWIDTH 163 0
DWIDTH 5 0
BBX 0 0 0 0
BITMAP
ENDCHAR
STARTCHAR 2219
ENCODING 8729
SWIDTH 261 0
DWIDTH 8 0
BBX 0 0 0 0
BITMAP
ENDCHAR
STARTCHAR 221A
ENCODING 8730
SWIDTH 490 0
DWIDTH 15 0
BBX 0 0 0 0
BITMAP
ENDCHAR
STARTCHAR 221E
ENCODING 8734
SWIDTH 490 0
DWIDTH 15 0
BBX 0 0 0 0
BITMAP
ENDCHAR
STARTCHAR 222B
ENCODING 8747
SWIDTH 327 0
DWIDTH 10 0
BBX 0 0 0 0
BITMAP
ENDCHAR
STARTCHAR 2248
ENCODING 8776
SWIDTH 490 0
DWIDTH 15 0
BBX 0 0 0 0
BITMAP
ENDCHAR
STARTCHAR 2264
ENCODING 8804
SWIDTH 490 0
DWIDTH 15 0
BBX 0 0 0 0
BITMAP
ENDCHAR
STARTCHAR 2265
ENCODING 8805
SWIDTH 490 0
DWIDTH 15 0
BBX 0 0 0 0
BITMAP
ENDCHAR
STARTCHAR F001
ENCODING 61441
SWIDTH 523 0
DWIDTH 16 0
BBX 0 0 0 0
BITMAP
ENDCHAR
STARTCHAR F002
ENCODING 61442
SWIDTH 523 0
DWIDTH 16 0
BBX 0 0 0 0
BITMAP
ENDCHAR
STARTCHAR FB01
ENCODING 64257
SWIDTH 523 0
DWIDTH 16 0
BBX 0 0 0 0
BITMAP
ENDCHAR
STARTCHAR FB02
ENCODING 64258
SWIDTH 523 0
DWIDTH 16 0
BBX 0 0 0 0
BITMAP
ENDCHAR
ENDFONT
